<svg width="14" height="14" viewBox="0 0 14 14" fill="none" xmlns="http://www.w3.org/2000/svg">
<path d="M10.3334 1.66659H13C13.1769 1.66659 13.3464 1.73682 13.4714 1.86185C13.5965 1.98687 13.6667 2.15644 13.6667 2.33325V12.9999C13.6667 13.1767 13.5965 13.3463 13.4714 13.4713C13.3464 13.5963 13.1769 13.6666 13 13.6666H1.00004C0.82323 13.6666 0.65366 13.5963 0.528636 13.4713C0.403612 13.3463 0.333374 13.1767 0.333374 12.9999V2.33325C0.333374 2.15644 0.403612 1.98687 0.528636 1.86185C0.65366 1.73682 0.82323 1.66659 1.00004 1.66659H3.66671V0.333252H5.00004V1.66659H9.00004V0.333252H10.3334V1.66659ZM12.3334 6.99992H1.66671V12.3333H12.3334V6.99992ZM9.00004 2.99992H5.00004V4.33325H3.66671V2.99992H1.66671V5.66659H12.3334V2.99992H10.3334V4.33325H9.00004V2.99992ZM3.00004 8.33325H4.33337V9.66659H3.00004V8.33325ZM6.33337 8.33325H7.66671V9.66659H6.33337V8.33325ZM9.66671 8.33325H11V9.66659H9.66671V8.33325Z" fill="#979797"/>
</svg>
