<svg width="208" height="35" viewBox="0 0 208 35" fill="none" xmlns="http://www.w3.org/2000/svg">
<g clip-path="url(#clip0_1_209)">
<path d="M61.3714 26.7376C58.6033 26.7376 56.3594 24.5081 56.3594 21.7577V1.28062C56.3594 1.07386 56.5281 0.90625 56.7361 0.90625H60.8342C61.1309 0.90625 61.3714 1.14524 61.3714 1.44004V26.7376Z" fill="white"/>
<path fill-rule="evenodd" clip-rule="evenodd" d="M83.1831 26.2042C83.1831 26.499 82.9426 26.738 82.6459 26.738H78.7444C78.4477 26.738 78.2072 26.499 78.2072 26.2042V24.8392C77.7384 25.5557 76.9812 26.0931 75.9716 26.4872C74.998 26.8813 74.0966 27.0604 73.3033 27.0604C71.0317 27.0604 69.0485 26.2722 67.3178 24.66C65.587 23.0478 64.7216 20.934 64.7216 18.3544C64.7216 15.7749 65.587 13.6969 67.3178 12.0847C69.0485 10.4725 71.0317 9.64844 73.3033 9.64844C74.8899 9.64844 77.0533 10.2575 78.2072 11.8697V10.5405C78.2072 10.2457 78.4477 10.0067 78.7444 10.0067H82.6459C82.9426 10.0067 83.1831 10.2457 83.1831 10.5405V26.2042ZM71.1759 21.2206C72.0413 21.973 73.0149 22.3313 74.1327 22.3313C76.2961 22.3313 78.2072 20.7549 78.2072 18.3544C78.2072 15.954 76.2961 14.3776 74.1327 14.3776C73.0149 14.3776 72.0413 14.7717 71.1759 15.5241C70.3466 16.2765 69.9139 17.208 69.9139 18.3544C69.9139 19.5009 70.3466 20.4682 71.1759 21.2206Z" fill="white"/>
<path d="M94.1521 20.3963C95.342 20.7187 95.8107 21.1128 95.8107 21.8294C95.8107 22.6534 94.9093 23.1908 93.7555 23.2266C92.6482 23.2266 91.6899 22.5849 91.3754 21.7932C91.2693 21.5259 91.0383 21.292 90.7491 21.292H87.1283C86.8273 21.292 86.5825 21.5383 86.6131 21.8358C86.7684 23.345 87.4492 24.59 88.7074 25.5196C90.1136 26.5586 91.7723 27.0601 93.6112 27.0601C95.5583 27.0601 97.2531 26.5944 98.6954 25.6987C100.174 24.803 100.895 23.5133 100.895 21.8294C100.895 20.8262 100.751 19.8947 99.2723 18.4974C98.5511 17.8167 97.5776 17.2793 96.3156 16.9569L93.467 16.2045C92.5295 15.9537 92.0247 15.5596 91.9886 14.9506C91.9526 14.1982 92.6377 13.6966 93.7555 13.6966C94.775 13.6966 95.3709 14.0239 95.5813 14.6597C95.6716 14.9325 95.8952 15.1655 96.1842 15.1655H99.8426C100.143 15.1655 100.388 14.9198 100.361 14.6223C100.214 12.9979 99.5383 11.7817 98.3348 10.9737C97.0006 10.0781 95.3781 9.6123 93.467 9.6123C91.7002 9.6123 90.1858 10.1139 88.8877 11.0812C87.5896 12.0486 86.9406 13.1234 86.9045 14.3773C86.8685 15.4163 86.9406 15.9895 87.4814 17.136C88.0584 18.2467 89.6088 19.214 91.9526 19.8231L94.1521 20.3963Z" fill="white"/>
<path d="M112.178 21.8294C112.178 21.1128 111.709 20.7187 110.519 20.3963L108.32 19.8231C105.976 19.214 104.426 18.2467 103.849 17.136C103.308 15.9895 103.236 15.4163 103.272 14.3773C103.308 13.1234 103.957 12.0486 105.255 11.0812C106.553 10.1139 108.067 9.6123 109.834 9.6123C111.745 9.6123 113.368 10.0781 114.702 10.9737C115.906 11.7817 116.581 12.9979 116.728 14.6223C116.755 14.9198 116.511 15.1655 116.21 15.1655H112.551C112.263 15.1655 112.039 14.9325 111.949 14.6597C111.738 14.0239 111.142 13.6966 110.123 13.6966C109.005 13.6966 108.32 14.1982 108.356 14.9506C108.392 15.5596 108.897 15.9537 109.834 16.2045L112.683 16.9569C113.945 17.2793 114.918 17.8167 115.64 18.4974C117.118 19.8947 117.262 20.8262 117.262 21.8294C117.262 23.5133 116.541 24.803 115.063 25.6987C113.62 26.5944 111.926 27.0601 109.978 27.0601C108.14 27.0601 106.481 26.5586 105.075 25.5196C103.817 24.59 103.136 23.345 102.98 21.8358C102.95 21.5383 103.195 21.292 103.496 21.292H107.116C107.406 21.292 107.637 21.5259 107.743 21.7932C108.057 22.5849 109.015 23.2266 110.123 23.2266C111.277 23.1908 112.178 22.6534 112.178 21.8294Z" fill="white"/>
<path d="M128.597 9.64844C126.109 9.64844 123.946 10.4725 122.143 12.0847C120.34 13.6969 119.438 15.7749 119.438 18.3186C119.438 20.8623 120.34 22.9761 122.143 24.6242C123.946 26.2723 126.109 27.0963 128.597 27.0963C131.431 27.0963 133.981 25.9359 135.596 23.9379C135.782 23.7091 135.722 23.3767 135.481 23.2071L132.3 20.9694C132.05 20.7938 131.707 20.8638 131.508 21.0943C130.801 21.9115 129.831 22.3313 128.597 22.3313C127.479 22.3313 126.506 21.973 125.676 21.2206C124.847 20.4682 124.414 19.5009 124.414 18.3186C124.414 17.1721 124.847 16.2406 125.676 15.5241C126.506 14.7717 127.479 14.4134 128.597 14.4134C129.83 14.4134 130.799 14.8324 131.505 15.6479C131.706 15.8792 132.051 15.9485 132.301 15.7707L135.481 13.5058C135.722 13.3342 135.779 13 135.591 12.7723C133.945 10.7778 131.397 9.64844 128.597 9.64844Z" fill="white"/>
<path fill-rule="evenodd" clip-rule="evenodd" d="M156.345 26.1681C156.345 26.4629 156.104 26.7019 155.807 26.7019H151.906C151.609 26.7019 151.369 26.4629 151.369 26.1681V24.803C150.9 25.5196 150.143 26.057 149.133 26.4511C148.16 26.8452 147.258 27.0243 146.465 27.0243C144.193 27.0243 142.21 26.2361 140.479 24.6239C138.749 23.0117 137.883 20.8979 137.883 18.3183C137.883 15.7388 138.749 13.6608 140.479 12.0486C142.21 10.4363 144.193 9.6123 146.465 9.6123C148.051 9.6123 150.215 10.2214 151.369 11.8336V10.5044C151.369 10.2096 151.609 9.97058 151.906 9.97058H155.807C156.104 9.97058 156.345 10.2096 156.345 10.5044V26.1681ZM144.337 21.1845C145.203 21.9369 146.176 22.2951 147.294 22.2951C149.458 22.2951 151.369 20.7187 151.369 18.3183C151.369 15.9179 149.458 14.3415 147.294 14.3415C146.176 14.3415 145.203 14.7356 144.337 15.488C143.508 16.2403 143.075 17.1718 143.075 18.3183C143.075 19.4648 143.508 20.4321 144.337 21.1845Z" fill="white"/>
<path d="M178.442 14.4851C180.029 14.4851 181.219 15.7032 181.219 17.817V26.2042C181.219 26.499 181.459 26.738 181.756 26.738H185.657C185.954 26.738 186.195 26.499 186.195 26.2042V17.2438C186.195 12.2638 183.779 9.64844 179.704 9.64844C177.577 9.64844 175.882 10.6516 174.656 12.6221C173.719 10.6516 171.916 9.68427 169.248 9.68427C167.373 9.68427 165.606 10.7233 164.848 12.443V10.5405C164.848 10.2457 164.608 10.0067 164.311 10.0067H160.374C160.077 10.0067 159.836 10.2457 159.836 10.5405V26.2042C159.836 26.499 160.077 26.738 160.374 26.738H164.311C164.608 26.738 164.848 26.499 164.848 26.2042V17.8887C164.848 15.4883 166.074 14.4851 167.769 14.4851C169.32 14.4851 170.51 15.7032 170.546 17.7096V26.2042C170.546 26.499 170.786 26.738 171.083 26.738H175.02C175.317 26.738 175.558 26.499 175.558 26.2042V17.8887C175.558 15.5957 176.711 14.4851 178.442 14.4851Z" fill="white"/>
<path fill-rule="evenodd" clip-rule="evenodd" d="M194.426 34.9063C191.713 34.9063 189.514 32.7211 189.514 30.0255V10.2903C189.514 10.1137 189.658 9.97058 189.836 9.97058H193.953C194.249 9.97058 194.49 10.2096 194.49 10.5044V12.0486C195.319 10.508 197.266 9.6123 199.43 9.6123C201.665 9.6123 203.577 10.4363 205.163 12.0486C206.786 13.6608 207.579 15.7388 207.579 18.2825C207.579 20.8979 206.786 23.0117 205.163 24.6239C203.577 26.2361 201.665 27.0601 199.43 27.0601C197.266 27.0601 195.319 26.1286 194.49 24.6597V34.8429C194.49 34.8779 194.461 34.9063 194.426 34.9063ZM198.492 14.3415C196.329 14.3415 194.598 16.0612 194.598 18.39C194.598 20.8262 196.329 22.3668 198.492 22.3668C200.656 22.3668 202.387 20.7187 202.387 18.39C202.387 15.9895 200.656 14.3415 198.492 14.3415Z" fill="white"/>
<path d="M49.4973 19.2759C49.6817 19.0431 50.017 18.9803 50.2619 19.1494L53.3989 21.3154C53.6379 21.4804 53.7022 21.8056 53.5313 22.0397C51.4208 24.9297 47.9588 26.7117 43.9712 26.7117C40.6401 26.7117 37.8529 25.5634 35.5755 23.2331C33.3321 20.9027 32.2104 18.0995 32.2104 14.7897C32.2104 11.4462 33.3321 8.64298 35.5755 6.31262C37.8529 3.98227 40.6401 2.83398 43.9712 2.83398C47.8513 2.83398 51.3008 4.57603 53.4126 7.33332C53.592 7.5675 53.529 7.90002 53.2852 8.06699L50.1257 10.2302C49.8807 10.398 49.5464 10.3343 49.3638 10.101C48.0034 8.36346 46.2059 7.49469 43.9712 7.49469C42.0337 7.49469 40.4361 8.20393 39.1445 9.62241C37.8529 11.0071 37.207 12.7296 37.207 14.7897C37.207 16.8161 37.8529 18.5386 39.1445 19.9571C40.4361 21.3418 42.0337 22.051 43.9712 22.051C46.1985 22.051 48.1652 20.9578 49.4973 19.2759Z" fill="white"/>
<path d="M22.1912 6.90586L20.8998 9.14265C21.6599 9.58212 22.322 9.83365 23.2632 9.83365V12.4185C21.8505 12.4185 20.7464 12.0407 19.6057 11.3807L20.8971 9.14385C18.616 7.82436 15.9677 7.06918 13.1429 7.06918C10.3176 7.06918 7.66869 7.82469 5.38726 9.14471L4.09465 6.90586C6.75631 5.36582 9.84669 4.48438 13.1429 4.48438C16.4392 4.48438 19.5296 5.36582 22.1912 6.90586Z" fill="white"/>
<path d="M19.606 11.3839C17.7048 10.2839 15.4974 9.6543 13.1429 9.6543C10.7885 9.6543 8.58107 10.2839 6.67988 11.3839L7.97248 13.6228C9.49343 12.7428 11.2594 12.2391 13.1429 12.2391C15.0259 12.2391 16.7913 12.7424 18.3119 13.6219L17.0205 15.8588C18.9217 16.9588 20.9087 17.5884 23.2632 17.5884V15.0036C21.3802 15.0036 19.8352 14.5002 18.3146 13.6207L19.606 11.3839Z" fill="white"/>
<path d="M13.1429 14.8242C14.5556 14.8242 15.8801 15.202 17.0208 15.862L15.7293 18.0988C18.0104 19.4183 20.4384 20.1735 23.2632 20.1735V22.7583C19.9669 22.7582 17.0969 21.8768 14.4353 20.3368L15.7267 18.1C14.9665 17.6605 14.0841 17.409 13.1429 17.409C12.2012 17.409 11.3182 17.6608 10.5577 18.1008L9.2651 15.862C10.4058 15.202 11.7303 14.8242 13.1429 14.8242Z" fill="white"/>
<path d="M8.52274 24.905H8.52509C8.53096 24.9166 8.53686 24.9282 8.54281 24.9398L8.79339 25.3738C9.71324 26.8022 11.3176 27.7483 13.1429 27.7483H13.149L1.95422 8.3584C1.25999 8.90538 0.60679 9.50211 0 10.1432L8.52274 24.905Z" fill="white"/>
</g>
<defs>
<clipPath id="clip0_1_209">
<rect width="208" height="34" fill="white" transform="translate(0 0.90625)"/>
</clipPath>
</defs>
</svg>
